<?xml version="1.0" encoding="UTF-8" standalone="no"?>
    <svg
            viewBox="0 0 576 512"
            version="1.1"
            id="svg4"
            width="32px" height="32px"
            sodipodi:docname="file-yaml-circle-check.svg"
            inkscape:version="1.2.2 (b0a8486541, 2022-12-01)"
            xmlns:inkscape="http://www.inkscape.org/namespaces/inkscape"
            xmlns:sodipodi="http://sodipodi.sourceforge.net/DTD/sodipodi-0.dtd"
            xmlns="http://www.w3.org/2000/svg"
            xmlns:svg="http://www.w3.org/2000/svg">
        <defs
                id="defs8" />
        <sodipodi:namedview
                id="namedview6"
                pagecolor="#ffffff"
                bordercolor="#111111"
                borderopacity="1"
                inkscape:showpageshadow="0"
                inkscape:pageopacity="0"
                inkscape:pagecheckerboard="1"
                inkscape:deskcolor="#d1d1d1"
                showgrid="false"
                inkscape:zoom="1.6328125"
                inkscape:cx="287.84689"
                inkscape:cy="304.38278"
                inkscape:window-width="2560"
                inkscape:window-height="1332"
                inkscape:window-x="1920"
                inkscape:window-y="0"
                inkscape:window-maximized="1"
                inkscape:current-layer="svg4" />
        <!--! Font Awesome Free 6.6.0 by @fontawesome - https://fontawesome.com License - https://fontawesome.com/license/free (Icons: CC BY 4.0, Fonts: SIL OFL 1.1, Code: MIT License) Copyright 2024 Fonticons, Inc. -->
        <path
                d="M0 64C0 28.7 28.7 0 64 0L224 0l0 128c0 17.7 14.3 32 32 32l128 0 0 38.6C310.1 219.5 256 287.4 256 368c0 59.1 29.1 111.3 73.7 143.3c-3.2 .5-6.4 .7-9.7 .7L64 512c-35.3 0-64-28.7-64-64L0 64zm384 64l-128 0L256 0 384 128zM288 368a144 144 0 1 1 288 0 144 144 0 1 1 -288 0zm211.3-43.3c-6.2-6.2-16.4-6.2-22.6 0L416 385.4l-28.7-28.7c-6.2-6.2-16.4-6.2-22.6 0s-6.2 16.4 0 22.6l40 40c6.2 6.2 16.4 6.2 22.6 0l72-72c6.2-6.2 6.2-16.4 0-22.6z"
                id="path2"
                style="fill:#fa6b00;fill-opacity:1" />
        <text
                xml:space="preserve"
                style="font-style:normal;font-weight:normal;font-size:150.69px;line-height:1.25;font-family:sans-serif;fill:#000000;fill-opacity:1;stroke:none;stroke-width:3.76726"
                x="55.554989"
                y="153.98875"
                id="text900"
                transform="scale(1.2344782,0.81005885)"><tspan
       sodipodi:role="line"
       id="tspan898"
       x="55.554989"
       y="153.98875"
       style="stroke-width:3.76726">Y</tspan></text>
        <text
                xml:space="preserve"
                style="font-style:normal;font-weight:normal;font-size:150.69px;line-height:1.25;font-family:sans-serif;fill:#000000;fill-opacity:1;stroke:none;stroke-width:3.76726"
                x="44.018932"
                y="278.5784"
                id="text904"
                transform="scale(1.2344782,0.81005885)"><tspan
       sodipodi:role="line"
       id="tspan902"
       x="44.018932"
       y="278.5784"
       style="stroke-width:3.76726">A</tspan></text>
        <text
                xml:space="preserve"
                style="font-style:normal;font-weight:normal;font-size:150.69px;line-height:1.25;font-family:sans-serif;fill:#000000;fill-opacity:1;stroke:none;stroke-width:3.76726"
                x="23.253981"
                y="403.16812"
                id="text908"
                transform="scale(1.2344782,0.81005885)"><tspan
       sodipodi:role="line"
       id="tspan906"
       x="23.253981"
       y="403.16812"
       style="stroke-width:3.76726">M</tspan></text>
        <text
                xml:space="preserve"
                style="font-style:normal;font-weight:normal;font-size:150.69px;line-height:1.25;font-family:sans-serif;fill:#000000;fill-opacity:1;stroke:none;stroke-width:3.76726"
                x="60.16943"
                y="525.45062"
                id="text912"
                transform="scale(1.2344782,0.81005885)"><tspan
       sodipodi:role="line"
       id="tspan910"
       x="60.16943"
       y="525.45062"
       style="stroke-width:3.76726">L</tspan></text>
    </svg>
